<mxfile host="app.diagrams.net" agent="Mozilla/5.0 (X11; Ubuntu; Linux x86_64; rv:131.0) Gecko/20100101 Firefox/131.0" version="24.8.4">
  <diagram name="Seite-1" id="hCGaTiYUkFbOjFSWeF-f">
    <mxGraphModel dx="1382" dy="797" grid="1" gridSize="10" guides="1" tooltips="1" connect="1" arrows="1" fold="1" page="1" pageScale="1" pageWidth="827" pageHeight="1169" math="0" shadow="0">
      <root>
        <mxCell id="0" />
        <mxCell id="1" parent="0" />
        <mxCell id="mdixySEOdcwI4Nmaf4u7-1" value="" style="rounded=1;whiteSpace=wrap;html=1;fillColor=#f5f5f5;strokeColor=#666666;fontColor=#333333;" vertex="1" parent="1">
          <mxGeometry x="180" y="40" width="440" height="360" as="geometry" />
        </mxCell>
        <mxCell id="mdixySEOdcwI4Nmaf4u7-2" value="" style="rounded=1;whiteSpace=wrap;html=1;fillColor=#f5f5f5;fontColor=#333333;strokeColor=#666666;" vertex="1" parent="1">
          <mxGeometry x="237" y="420" width="354" height="120" as="geometry" />
        </mxCell>
        <mxCell id="mdixySEOdcwI4Nmaf4u7-4" value="&lt;b&gt;Access Rules&lt;/b&gt;" style="rounded=1;whiteSpace=wrap;html=1;fillColor=#f8cecc;strokeColor=#b85450;" vertex="1" parent="1">
          <mxGeometry x="354" y="460" width="120" height="60" as="geometry" />
        </mxCell>
        <mxCell id="mdixySEOdcwI4Nmaf4u7-13" value="" style="group;" vertex="1" connectable="0" parent="1">
          <mxGeometry x="94" y="584" width="640" height="120" as="geometry" />
        </mxCell>
        <mxCell id="mdixySEOdcwI4Nmaf4u7-5" value="" style="rounded=1;whiteSpace=wrap;html=1;fillColor=#dae8fc;strokeColor=#6c8ebf;" vertex="1" parent="mdixySEOdcwI4Nmaf4u7-13">
          <mxGeometry width="640" height="120" as="geometry" />
        </mxCell>
        <mxCell id="mdixySEOdcwI4Nmaf4u7-6" value="&lt;font style=&quot;font-size: 18px;&quot;&gt;System Resources&lt;/font&gt;" style="text;html=1;align=center;verticalAlign=middle;whiteSpace=wrap;rounded=0;" vertex="1" parent="mdixySEOdcwI4Nmaf4u7-13">
          <mxGeometry x="233.5" y="10" width="173" height="30" as="geometry" />
        </mxCell>
        <mxCell id="mdixySEOdcwI4Nmaf4u7-7" value="GPS" style="rounded=0;whiteSpace=wrap;html=1;fillColor=#fff2cc;strokeColor=#d6b656;" vertex="1" parent="mdixySEOdcwI4Nmaf4u7-13">
          <mxGeometry x="70" y="60" width="60" height="30" as="geometry" />
        </mxCell>
        <mxCell id="mdixySEOdcwI4Nmaf4u7-8" value="BLE" style="rounded=0;whiteSpace=wrap;html=1;fillColor=#fff2cc;strokeColor=#d6b656;" vertex="1" parent="mdixySEOdcwI4Nmaf4u7-13">
          <mxGeometry x="173.5" y="60" width="60" height="30" as="geometry" />
        </mxCell>
        <mxCell id="mdixySEOdcwI4Nmaf4u7-9" value="Network" style="rounded=0;whiteSpace=wrap;html=1;fillColor=#fff2cc;strokeColor=#d6b656;" vertex="1" parent="mdixySEOdcwI4Nmaf4u7-13">
          <mxGeometry x="290" y="60" width="60" height="30" as="geometry" />
        </mxCell>
        <mxCell id="mdixySEOdcwI4Nmaf4u7-10" value="Sensors" style="rounded=0;whiteSpace=wrap;html=1;fillColor=#fff2cc;strokeColor=#d6b656;" vertex="1" parent="mdixySEOdcwI4Nmaf4u7-13">
          <mxGeometry x="406.5" y="60" width="60" height="30" as="geometry" />
        </mxCell>
        <mxCell id="mdixySEOdcwI4Nmaf4u7-11" value="..." style="rounded=0;whiteSpace=wrap;html=1;fillColor=#fff2cc;strokeColor=#d6b656;" vertex="1" parent="mdixySEOdcwI4Nmaf4u7-13">
          <mxGeometry x="511" y="60" width="60" height="30" as="geometry" />
        </mxCell>
        <mxCell id="mdixySEOdcwI4Nmaf4u7-15" value="&lt;font style=&quot;font-size: 18px;&quot;&gt;Android Sandbox&lt;br&gt;&lt;/font&gt;" style="text;html=1;align=center;verticalAlign=middle;whiteSpace=wrap;rounded=0;" vertex="1" parent="1">
          <mxGeometry x="313.5" y="60" width="173" height="30" as="geometry" />
        </mxCell>
        <mxCell id="mdixySEOdcwI4Nmaf4u7-18" style="edgeStyle=orthogonalEdgeStyle;rounded=0;orthogonalLoop=1;jettySize=auto;html=1;startArrow=classic;startFill=1;" edge="1" parent="1" source="mdixySEOdcwI4Nmaf4u7-16" target="mdixySEOdcwI4Nmaf4u7-17">
          <mxGeometry relative="1" as="geometry" />
        </mxCell>
        <mxCell id="mdixySEOdcwI4Nmaf4u7-27" style="edgeStyle=orthogonalEdgeStyle;rounded=0;orthogonalLoop=1;jettySize=auto;html=1;entryX=0;entryY=0.5;entryDx=0;entryDy=0;startArrow=classic;startFill=1;" edge="1" parent="1" source="mdixySEOdcwI4Nmaf4u7-16" target="mdixySEOdcwI4Nmaf4u7-4">
          <mxGeometry relative="1" as="geometry">
            <Array as="points">
              <mxPoint x="160" y="185" />
              <mxPoint x="160" y="490" />
            </Array>
          </mxGeometry>
        </mxCell>
        <mxCell id="mdixySEOdcwI4Nmaf4u7-16" value="" style="rounded=1;whiteSpace=wrap;html=1;fillColor=#e1d5e7;strokeColor=#9673a6;" vertex="1" parent="1">
          <mxGeometry x="220" y="110" width="120" height="150" as="geometry" />
        </mxCell>
        <mxCell id="mdixySEOdcwI4Nmaf4u7-17" value="/data/.../...app1" style="rounded=0;whiteSpace=wrap;html=1;fillColor=#fff2cc;strokeColor=#d6b656;" vertex="1" parent="1">
          <mxGeometry x="220" y="310" width="120" height="40" as="geometry" />
        </mxCell>
        <mxCell id="mdixySEOdcwI4Nmaf4u7-19" value="App 1" style="rounded=1;whiteSpace=wrap;html=1;fillColor=#e1d5e7;strokeColor=#9673a6;" vertex="1" parent="1">
          <mxGeometry x="220" y="110" width="120" height="40" as="geometry" />
        </mxCell>
        <mxCell id="mdixySEOdcwI4Nmaf4u7-20" value="UID 10000" style="text;html=1;align=center;verticalAlign=middle;resizable=0;points=[];autosize=1;strokeColor=none;fillColor=none;" vertex="1" parent="1">
          <mxGeometry x="220" y="150" width="80" height="30" as="geometry" />
        </mxCell>
        <mxCell id="mdixySEOdcwI4Nmaf4u7-24" style="edgeStyle=orthogonalEdgeStyle;rounded=0;orthogonalLoop=1;jettySize=auto;html=1;entryX=0.5;entryY=0;entryDx=0;entryDy=0;startArrow=classic;startFill=1;" edge="1" parent="1" source="mdixySEOdcwI4Nmaf4u7-21" target="mdixySEOdcwI4Nmaf4u7-22">
          <mxGeometry relative="1" as="geometry" />
        </mxCell>
        <mxCell id="mdixySEOdcwI4Nmaf4u7-26" style="edgeStyle=orthogonalEdgeStyle;rounded=0;orthogonalLoop=1;jettySize=auto;html=1;entryX=1;entryY=0.5;entryDx=0;entryDy=0;startArrow=classic;startFill=1;" edge="1" parent="1" source="mdixySEOdcwI4Nmaf4u7-21" target="mdixySEOdcwI4Nmaf4u7-4">
          <mxGeometry relative="1" as="geometry">
            <Array as="points">
              <mxPoint x="660" y="185" />
              <mxPoint x="660" y="490" />
            </Array>
          </mxGeometry>
        </mxCell>
        <mxCell id="mdixySEOdcwI4Nmaf4u7-21" value="" style="rounded=1;whiteSpace=wrap;html=1;fillColor=#e1d5e7;strokeColor=#9673a6;" vertex="1" parent="1">
          <mxGeometry x="450" y="110" width="120" height="150" as="geometry" />
        </mxCell>
        <mxCell id="mdixySEOdcwI4Nmaf4u7-22" value="/data/.../...app2" style="rounded=0;whiteSpace=wrap;html=1;fillColor=#fff2cc;strokeColor=#d6b656;" vertex="1" parent="1">
          <mxGeometry x="450" y="310" width="120" height="40" as="geometry" />
        </mxCell>
        <mxCell id="mdixySEOdcwI4Nmaf4u7-23" value="App 2" style="rounded=1;whiteSpace=wrap;html=1;fillColor=#e1d5e7;strokeColor=#9673a6;" vertex="1" parent="1">
          <mxGeometry x="450" y="110" width="120" height="40" as="geometry" />
        </mxCell>
        <mxCell id="mdixySEOdcwI4Nmaf4u7-25" value="UID 10001" style="text;html=1;align=center;verticalAlign=middle;resizable=0;points=[];autosize=1;strokeColor=none;fillColor=none;" vertex="1" parent="1">
          <mxGeometry x="450" y="150" width="80" height="30" as="geometry" />
        </mxCell>
        <mxCell id="mdixySEOdcwI4Nmaf4u7-29" value="&lt;font style=&quot;font-size: 17px;&quot;&gt;Permissions&lt;/font&gt;" style="text;html=1;align=center;verticalAlign=middle;whiteSpace=wrap;rounded=0;" vertex="1" parent="1">
          <mxGeometry x="384" y="420" width="60" height="30" as="geometry" />
        </mxCell>
        <mxCell id="mdixySEOdcwI4Nmaf4u7-28" style="edgeStyle=orthogonalEdgeStyle;rounded=0;orthogonalLoop=1;jettySize=auto;html=1;entryX=0.5;entryY=0;entryDx=0;entryDy=0;startArrow=classic;startFill=1;exitX=0.5;exitY=1;exitDx=0;exitDy=0;" edge="1" parent="1" source="mdixySEOdcwI4Nmaf4u7-4" target="mdixySEOdcwI4Nmaf4u7-5">
          <mxGeometry relative="1" as="geometry" />
        </mxCell>
      </root>
    </mxGraphModel>
  </diagram>
</mxfile>
